<svg width="171" height="88" viewBox="0 0 171 88" fill="none" xmlns="http://www.w3.org/2000/svg">
<path d="M0.539062 0.5625H11.1445C13.319 0.5625 15.1875 0.888021 16.75 1.53906C18.3255 2.1901 19.5365 3.15365 20.3828 4.42969C21.2292 5.70573 21.6523 7.27474 21.6523 9.13672C21.6523 10.6602 21.3919 11.9688 20.8711 13.0625C20.3633 14.1432 19.6406 15.0482 18.7031 15.7773C17.7786 16.4935 16.6914 17.0664 15.4414 17.4961L13.5859 18.4727H4.36719L4.32812 13.9023H11.1836C12.2122 13.9023 13.0651 13.7201 13.7422 13.3555C14.4193 12.9909 14.9271 12.4831 15.2656 11.832C15.6172 11.181 15.793 10.4258 15.793 9.56641C15.793 8.65495 15.6237 7.86719 15.2852 7.20312C14.9466 6.53906 14.4323 6.03125 13.7422 5.67969C13.0521 5.32812 12.1862 5.15234 11.1445 5.15234H6.39844V29H0.539062V0.5625ZM16.4375 29L9.95312 16.3242L16.1445 16.2852L22.707 28.7266V29H16.4375ZM37.7266 5.42578L29.9922 29H23.7617L34.3281 0.5625H38.293L37.7266 5.42578ZM44.1523 29L36.3984 5.42578L35.7734 0.5625H39.7773L50.4023 29H44.1523ZM43.8008 18.4141V23.0039H28.7812V18.4141H43.8008ZM76.1836 0.5625V29H70.3242L58.8984 9.9375V29H53.0391V0.5625H58.8984L70.3438 19.6445V0.5625H76.1836ZM90.0117 29H83.8203L83.8594 24.4297H90.0117C91.5482 24.4297 92.8438 24.0846 93.8984 23.3945C94.9531 22.6914 95.7474 21.6693 96.2812 20.3281C96.8281 18.987 97.1016 17.3659 97.1016 15.4648V14.0781C97.1016 12.6198 96.9453 11.3372 96.6328 10.2305C96.3333 9.1237 95.8841 8.19271 95.2852 7.4375C94.6862 6.68229 93.9505 6.11589 93.0781 5.73828C92.2057 5.34766 91.2031 5.15234 90.0703 5.15234H83.7031V0.5625H90.0703C91.9714 0.5625 93.7096 0.888021 95.2852 1.53906C96.8737 2.17708 98.2474 3.09505 99.4062 4.29297C100.565 5.49089 101.457 6.92318 102.082 8.58984C102.72 10.2435 103.039 12.0859 103.039 14.1172V15.4648C103.039 17.4831 102.72 19.3255 102.082 20.9922C101.457 22.6589 100.565 24.0911 99.4062 25.2891C98.2604 26.474 96.8867 27.3919 95.2852 28.043C93.6966 28.681 91.9388 29 90.0117 29ZM87.1406 0.5625V29H81.2812V0.5625H87.1406ZM130.656 14.1172V15.4648C130.656 17.6263 130.363 19.5664 129.777 21.2852C129.191 23.0039 128.365 24.4688 127.297 25.6797C126.229 26.8776 124.953 27.7956 123.469 28.4336C121.997 29.0716 120.363 29.3906 118.566 29.3906C116.783 29.3906 115.148 29.0716 113.664 28.4336C112.193 27.7956 110.917 26.8776 109.836 25.6797C108.755 24.4688 107.915 23.0039 107.316 21.2852C106.73 19.5664 106.438 17.6263 106.438 15.4648V14.1172C106.438 11.9427 106.73 10.0026 107.316 8.29688C107.902 6.57812 108.729 5.11328 109.797 3.90234C110.878 2.69141 112.154 1.76693 113.625 1.12891C115.109 0.490885 116.743 0.171875 118.527 0.171875C120.324 0.171875 121.958 0.490885 123.43 1.12891C124.914 1.76693 126.19 2.69141 127.258 3.90234C128.339 5.11328 129.172 6.57812 129.758 8.29688C130.357 10.0026 130.656 11.9427 130.656 14.1172ZM124.738 15.4648V14.0781C124.738 12.5677 124.602 11.2396 124.328 10.0938C124.055 8.94792 123.651 7.98438 123.117 7.20312C122.583 6.42188 121.932 5.83594 121.164 5.44531C120.396 5.04167 119.517 4.83984 118.527 4.83984C117.538 4.83984 116.659 5.04167 115.891 5.44531C115.135 5.83594 114.491 6.42188 113.957 7.20312C113.436 7.98438 113.039 8.94792 112.766 10.0938C112.492 11.2396 112.355 12.5677 112.355 14.0781V15.4648C112.355 16.9622 112.492 18.2904 112.766 19.4492C113.039 20.5951 113.443 21.5651 113.977 22.3594C114.51 23.1406 115.161 23.7331 115.93 24.1367C116.698 24.5404 117.577 24.7422 118.566 24.7422C119.556 24.7422 120.435 24.5404 121.203 24.1367C121.971 23.7331 122.616 23.1406 123.137 22.3594C123.658 21.5651 124.055 20.5951 124.328 19.4492C124.602 18.2904 124.738 16.9622 124.738 15.4648ZM137.551 0.5625H142.512L149.816 21.4414L157.121 0.5625H162.082L151.809 29H147.824L137.551 0.5625ZM134.875 0.5625H139.816L140.715 20.9141V29H134.875V0.5625ZM159.816 0.5625H164.777V29H158.918V20.9141L159.816 0.5625ZM6.76953 52.5625V81H0.929688V52.5625H6.76953ZM14.9336 52.5625H19.8945L27.1992 73.4414L34.5039 52.5625H39.4648L29.1914 81H25.207L14.9336 52.5625ZM12.2578 52.5625H17.1992L18.0977 72.9141V81H12.2578V52.5625ZM37.1992 52.5625H42.1602V81H36.3008V72.9141L37.1992 52.5625ZM59.2109 57.4258L51.4766 81H45.2461L55.8125 52.5625H59.7773L59.2109 57.4258ZM65.6367 81L57.8828 57.4258L57.2578 52.5625H61.2617L71.8867 81H65.6367ZM65.2852 70.4141V75.0039H50.2656V70.4141H65.2852ZM96.7109 66.1367V77.4062C96.2682 77.9401 95.5846 78.5195 94.6602 79.1445C93.7357 79.7565 92.5443 80.2839 91.0859 80.7266C89.6276 81.1693 87.8633 81.3906 85.793 81.3906C83.957 81.3906 82.2839 81.0911 80.7734 80.4922C79.263 79.8802 77.9609 78.9883 76.8672 77.8164C75.7865 76.6445 74.9531 75.2122 74.3672 73.5195C73.7812 71.8138 73.4883 69.8672 73.4883 67.6797V65.9023C73.4883 63.7148 73.7682 61.7682 74.3281 60.0625C74.901 58.3568 75.7148 56.918 76.7695 55.7461C77.8242 54.5742 79.0807 53.6823 80.5391 53.0703C81.9974 52.4583 83.6185 52.1523 85.4023 52.1523C87.8763 52.1523 89.9076 52.556 91.4961 53.3633C93.0846 54.1576 94.2956 55.2643 95.1289 56.6836C95.9753 58.0898 96.4961 59.7044 96.6914 61.5273H91.0078C90.8646 60.5638 90.5911 59.724 90.1875 59.0078C89.7839 58.2917 89.2044 57.7318 88.4492 57.3281C87.707 56.9245 86.7435 56.7227 85.5586 56.7227C84.582 56.7227 83.7096 56.9245 82.9414 57.3281C82.1862 57.7188 81.5482 58.2982 81.0273 59.0664C80.5065 59.8346 80.1094 60.7852 79.8359 61.918C79.5625 63.0508 79.4258 64.3659 79.4258 65.8633V67.6797C79.4258 69.1641 79.569 70.4792 79.8555 71.625C80.1419 72.7578 80.5651 73.7148 81.125 74.4961C81.6979 75.2643 82.401 75.8438 83.2344 76.2344C84.0677 76.625 85.0378 76.8203 86.1445 76.8203C87.069 76.8203 87.8372 76.7422 88.4492 76.5859C89.0742 76.4297 89.5755 76.2409 89.9531 76.0195C90.3438 75.7852 90.6432 75.5638 90.8516 75.3555V70.3164H85.5V66.1367H96.7109ZM120.52 76.4297V81H105.383V76.4297H120.52ZM107.297 52.5625V81H101.438V52.5625H107.297ZM118.547 64.1445V68.5977H105.383V64.1445H118.547ZM120.5 52.5625V57.1523H105.383V52.5625H120.5Z" fill="#E1E1E6"/>
<path d="M134.841 47.8263C134.753 47.9799 134.265 48.8188 133.758 49.6872C133.252 50.5556 132.5 51.8433 132.088 52.5523C129.467 57.0518 127.687 60.102 127.069 61.1614C126.788 61.6458 126.556 62.0555 126.554 62.0774C126.551 62.0993 126.594 62.1123 126.666 62.114C126.83 62.1137 144.583 60.5302 144.733 60.4998C144.799 60.4873 144.89 60.4555 144.935 60.4286C145.067 60.3458 145.008 60.4522 146.639 57.3188C147.013 56.595 147.481 55.6978 147.675 55.3271C147.868 54.9544 148.261 54.2011 148.546 53.6549C148.83 53.1067 149.46 51.8999 149.942 50.9731C150.424 50.0463 151.129 48.6955 151.503 47.9717C151.879 47.25 152.357 46.3311 152.567 45.9308C152.774 45.5325 152.958 45.1675 152.974 45.118C153.011 45.0131 152.984 44.9765 152.87 44.9799C152.616 44.988 135.546 47.2539 135.383 47.304C135.135 47.3761 135.051 47.456 134.841 47.8263ZM135.326 49.1846C136.075 48.691 136.811 48.4505 137.484 48.4781C138.461 48.5166 138.771 49.2542 138.193 50.1708C137.561 51.174 136.116 52.0067 134.998 52.0088C133.826 52.0117 133.561 51.0417 134.443 49.9724C134.617 49.7569 135.074 49.3543 135.326 49.1846ZM130.559 57.3963C130.981 57.0888 131.366 56.8861 131.806 56.7406C132.787 56.4101 133.621 56.573 133.81 57.1342C133.918 57.45 133.833 57.8571 133.567 58.288C133.412 58.5399 132.893 59.0707 132.581 59.297C132.11 59.6394 131.509 59.9188 130.996 60.0407C130.616 60.1297 130.104 60.1199 129.839 60.018C129.668 59.9521 129.615 59.917 129.501 59.7966C129.218 59.4947 129.216 59.0816 129.493 58.5631C129.716 58.1492 130.1 57.727 130.559 57.3963ZM140.859 48.576C141.757 47.9062 142.911 47.5976 143.605 47.8431C143.826 47.9201 144.03 48.1144 144.102 48.3136C144.346 48.9739 143.653 50.0275 142.539 50.7003C141.59 51.2711 140.555 51.4507 139.991 51.1403C139.565 50.905 139.468 50.4078 139.736 49.8392C139.953 49.3813 140.293 49 140.859 48.576ZM136.49 56.7351C137.18 56.2741 137.916 56.0217 138.553 56.0344C139.005 56.0428 139.187 56.1069 139.402 56.3334C139.588 56.5293 139.632 56.65 139.627 56.9193C139.603 57.8068 138.362 59.0075 137.053 59.4083C136.664 59.529 136.455 59.5602 136.108 59.5521C135.709 59.5469 135.46 59.4573 135.277 59.2595C135.033 58.9984 134.996 58.6763 135.16 58.253C135.331 57.8239 135.57 57.5001 136.01 57.1132C136.152 56.9867 136.368 56.8161 136.49 56.7351ZM146.729 47.8136C147.172 47.5025 147.791 47.2174 148.277 47.1049C148.629 47.0232 149.169 47.0337 149.398 47.1228C149.637 47.2182 149.837 47.4084 149.915 47.6137C150.151 48.2618 149.46 49.3175 148.36 49.9846C146.849 50.8996 145.334 50.7349 145.398 49.6627C145.431 49.0887 145.951 48.3663 146.729 47.8136ZM142.139 56.2569C142.809 55.7176 143.828 55.348 144.528 55.3861C144.854 55.4056 145.074 55.4885 145.258 55.6664C145.452 55.8505 145.517 56.0256 145.497 56.3085C145.405 57.5278 143.406 58.9903 141.929 58.9143C141.021 58.8654 140.688 58.231 141.134 57.3852C141.347 56.985 141.624 56.6721 142.139 56.2569Z" fill="#E1E1E6"/>
<path d="M126.505 63.4034C126.52 63.4397 128.718 66.9529 131.396 71.2137C135.338 77.4893 136.273 78.9637 136.328 78.985C136.363 79.0018 139.24 78.8666 142.716 78.6895C146.192 78.5124 150.29 78.3037 151.821 78.2273C153.354 78.149 154.644 78.073 154.688 78.0621C154.757 78.0437 154.765 78.0319 154.76 77.9819C154.753 77.9498 154.725 77.8833 154.695 77.8347C154.662 77.7881 152.486 74.1835 149.859 69.8322C147.232 65.4768 145.056 61.8802 145.023 61.8376C144.981 61.7807 144.932 61.7496 144.849 61.7318C144.785 61.7183 144.198 61.7526 143.541 61.8093C139.759 62.141 126.569 63.3151 126.529 63.3261C126.493 63.3333 126.486 63.3551 126.505 63.4034ZM129.756 64.8276C130.06 64.675 130.585 64.6232 131.054 64.6979C131.504 64.7742 132.12 65.0279 132.564 65.3275C132.84 65.5115 133.333 66.0098 133.502 66.2752C133.688 66.5608 133.799 66.8428 133.837 67.1131C133.872 67.3634 133.853 67.5126 133.759 67.7499C133.705 67.8904 133.667 67.9414 133.517 68.0796C133.308 68.2743 133.158 68.3467 132.841 68.4152C132.578 68.471 132.095 68.4599 131.786 68.3928C131.343 68.2968 130.825 68.0673 130.414 67.7904C130.312 67.7202 130.096 67.5336 129.914 67.3538C129.52 66.9635 129.339 66.6939 129.214 66.3038C129.006 65.6484 129.203 65.1082 129.756 64.8276ZM141.318 63.9192C141.567 63.7953 141.788 63.7525 142.159 63.7531C143.59 63.7562 145.194 64.9408 145.4 66.1449C145.467 66.5396 145.377 66.8569 145.12 67.1283C144.844 67.4173 144.453 67.548 143.907 67.5353C142.935 67.5109 141.891 66.9779 141.226 66.1662C140.492 65.2732 140.532 64.3042 141.318 63.9192ZM138.767 69.3184C139.941 68.9524 141.735 69.7941 142.423 71.0334C142.649 71.4397 142.708 71.9181 142.576 72.2722C142.511 72.4463 142.484 72.4876 142.328 72.6357C142.215 72.7428 142.103 72.8261 142.012 72.8659C141.397 73.155 140.426 73.0368 139.589 72.5784C139.163 72.343 138.952 72.1825 138.621 71.8296C138.366 71.5563 138.304 71.4751 138.191 71.2649C137.906 70.7474 137.86 70.2913 138.043 69.8924C138.088 69.7917 138.142 69.7251 138.304 69.5832C138.494 69.4099 138.523 69.3946 138.767 69.3184ZM135.962 74.7058C136.533 74.4236 137.488 74.5375 138.339 74.9862C139.538 75.6206 140.251 76.7666 139.952 77.5819C139.624 78.4784 138.181 78.6067 136.872 77.852C136.54 77.6588 136.275 77.4491 136.004 77.1634C135.505 76.633 135.285 76.147 135.314 75.6348C135.341 75.1904 135.529 74.9193 135.962 74.7058ZM147.46 74.0514C147.691 73.933 147.982 73.8739 148.334 73.874C149.653 73.8786 151.131 74.8806 151.502 76.0287C151.854 77.1145 151.014 77.8495 149.675 77.623C148.805 77.4751 147.861 76.9165 147.346 76.238C146.86 75.6022 146.743 74.9728 147.01 74.4441C147.052 74.3573 147.324 74.1221 147.46 74.0514Z" fill="#E1E1E6"/>
<path d="M153.53 46.6336C153.226 47.2173 152.782 48.0731 152.543 48.5326C152.304 48.992 151.73 50.0984 151.265 50.9897C150.804 51.881 150.336 52.7783 150.229 52.9813C150.121 53.1844 149.656 54.0797 149.192 54.973C148.729 55.8624 148.192 56.8997 147.997 57.2704C146.646 59.8634 146.145 60.8317 146.103 60.9485C146.042 61.1187 146.046 61.1966 146.114 61.3259C146.285 61.6372 155.661 77.1546 155.745 77.2643C155.82 77.3598 155.852 77.3885 155.872 77.369C155.886 77.3553 156.253 76.6234 156.684 75.7413C157.595 73.8805 158.701 71.6289 160.375 68.2171C161.225 66.4846 162.61 63.6648 163.054 62.755C163.513 61.8197 163.592 61.624 163.556 61.5074C163.541 61.4671 163.309 61.0586 163.039 60.6014C162.769 60.1441 162.393 59.5048 162.205 59.1831C162.019 58.8595 161.722 58.3577 161.555 58.0665C161.384 57.7752 161.102 57.2937 160.929 57.0003C160.758 56.705 160.475 56.2215 160.302 55.9282C160.131 55.6328 159.848 55.1493 159.675 54.856C159.504 54.5606 159.22 54.0771 159.047 53.7838C158.876 53.4885 158.593 53.0049 158.42 52.7116C158.249 52.4163 157.966 51.9328 157.793 51.6394C157.622 51.3441 157.339 50.8606 157.166 50.5672C156.995 50.2719 156.711 49.7884 156.538 49.495C156.367 49.1997 156.084 48.7162 155.911 48.4228C155.74 48.1275 155.457 47.648 155.285 47.3566C155.118 47.0654 154.824 46.5617 154.636 46.24C154.16 45.4268 154.185 45.4653 154.13 45.5219C154.103 45.5472 153.833 46.0479 153.53 46.6336ZM154.637 49.2056C154.856 49.1368 155.127 49.1551 155.338 49.2497C155.476 49.3128 155.528 49.3559 155.764 49.6088C156.008 49.8659 156.045 49.9167 156.143 50.1225C156.533 50.9577 156.603 52.039 156.326 52.9226C156.238 53.204 156.029 53.5923 155.868 53.7762C155.492 54.2026 154.972 54.3163 154.526 54.0645C154.322 53.952 154.014 53.6156 153.872 53.3549C153.374 52.4314 153.323 51.0691 153.749 50.1211C153.884 49.8268 153.982 49.6914 154.23 49.4676C154.439 49.2809 154.479 49.2539 154.637 49.2056ZM155.285 58.7778C156.137 58.4882 156.978 59.4316 157.138 60.8582C157.309 62.3748 156.636 63.7543 155.719 63.763C155.36 63.7667 155.101 63.629 154.796 63.2707C154.016 62.3626 153.904 60.542 154.555 59.4235C154.706 59.1636 155.057 58.8544 155.285 58.7778ZM155.63 68.8738C156.067 68.6564 156.491 68.762 156.894 69.1864C157.612 69.9434 157.839 71.4654 157.414 72.6409C157.27 73.0328 157.145 73.2334 156.884 73.4809C156.671 73.6835 156.646 73.6989 156.457 73.7584C156.118 73.8663 155.809 73.7993 155.489 73.5524C154.829 73.0462 154.452 71.7284 154.641 70.5952C154.786 69.7245 155.131 69.1218 155.63 68.8738Z" fill="#E1E1E6"/>
</svg>
